<svg width="21" height="17" viewBox="0 0 21 17" fill="none" xmlns="http://www.w3.org/2000/svg">
<g clip-path="url(#clip0_4349_4736)">
<path d="M16.9697 6.5H12.9291L9.21345 0.751875C9.16391 0.675346 9.09236 0.611747 9.00607 0.567516C8.91978 0.523286 8.82179 0.499994 8.72204 0.5L6.40638 0.5C6.03057 0.5 5.75941 0.817812 5.86264 1.13719L7.59603 6.5H3.95956L2.43229 4.7C2.32552 4.57406 2.15759 4.5 1.97977 4.5H0.565977C0.197947 4.5 -0.0721539 4.80563 0.0172905 5.12125L1.13128 8.5L0.0172905 11.8787C-0.0721539 12.1944 0.197947 12.5 0.565977 12.5H1.97977C2.15795 12.5 2.32552 12.4259 2.43229 12.3L3.95956 10.5H7.59603L5.86264 15.8625C5.75941 16.1819 6.03057 16.5 6.40638 16.5H8.72204C8.92497 16.5 9.11234 16.4038 9.2131 16.2481L12.9291 10.5H16.9697C18.2194 10.5 20.3636 9.60469 20.3636 8.5C20.3636 7.39531 18.2194 6.5 16.9697 6.5Z" fill="#1C9236"/>
</g>
<defs>
<clipPath id="clip0_4349_4736">
<rect width="20.3636" height="16" fill="white" transform="translate(0 0.5)"/>
</clipPath>
</defs>
</svg>
