<svg width="21" height="17" viewBox="0 0 21 17" fill="none" xmlns="http://www.w3.org/2000/svg">
<path d="M3.35151 13.1665L1.73938 8.69984C1.69696 8.5665 1.7145 8.41095 1.79199 8.23317C1.87005 8.05539 2.03635 7.93317 2.2909 7.8665L3.39393 7.5665V4.49984C3.39393 4.13317 3.56023 3.81939 3.89284 3.5585C4.22488 3.29717 4.62423 3.1665 5.0909 3.1665H7.63635V1.83317C7.63635 1.64428 7.71781 1.48584 7.88072 1.35784C8.04306 1.23028 8.24443 1.1665 8.48484 1.1665H11.8788C12.1192 1.1665 12.3208 1.23028 12.4837 1.35784C12.6461 1.48584 12.7273 1.64428 12.7273 1.83317V3.1665H15.2727C15.7394 3.1665 16.139 3.29717 16.4716 3.5585C16.8037 3.81939 16.9697 4.13317 16.9697 4.49984V7.5665L18.0727 7.8665C18.3697 7.95539 18.5465 8.08584 18.603 8.25784C18.6596 8.43028 18.6667 8.57762 18.6242 8.69984L17.0121 13.1665C16.503 13.1665 16.0259 13.0943 15.5807 12.9498C15.135 12.8054 14.7283 12.6221 14.3606 12.3998C14.2475 12.3332 14.1239 12.2803 13.9898 12.2412C13.8552 12.2025 13.7172 12.1832 13.5757 12.1832C13.4343 12.1832 13.2963 12.2025 13.1617 12.2412C13.0276 12.2803 12.904 12.3332 12.7909 12.3998C12.4232 12.6221 12.0202 12.8054 11.5818 12.9498C11.1434 13.0943 10.6768 13.1665 10.1818 13.1665C9.68686 13.1665 9.22019 13.0943 8.78181 12.9498C8.34343 12.8054 7.94039 12.6221 7.57272 12.3998C7.45959 12.3332 7.33599 12.2803 7.20193 12.2412C7.0673 12.2025 6.92928 12.1832 6.78787 12.1832C6.64646 12.1832 6.50872 12.2025 6.37466 12.2412C6.24003 12.2803 6.11615 12.3332 6.00302 12.3998C5.63534 12.6221 5.22892 12.8054 4.78375 12.9498C4.33801 13.0943 3.8606 13.1665 3.35151 13.1665ZM2.54545 15.8332C2.30504 15.8332 2.10367 15.7692 1.94132 15.6412C1.77842 15.5136 1.69696 15.3554 1.69696 15.1665C1.69696 14.9776 1.77842 14.8194 1.94132 14.6918C2.10367 14.5638 2.30504 14.4998 2.54545 14.4998H3.39393C3.88888 14.4998 4.37676 14.4498 4.85757 14.3498C5.33837 14.2498 5.80504 14.0998 6.25757 13.8998C6.32827 13.8665 6.40945 13.8414 6.50108 13.8245C6.59328 13.8081 6.68888 13.7998 6.78787 13.7998C6.88686 13.7998 6.98246 13.8081 7.07466 13.8245C7.16629 13.8414 7.24747 13.8665 7.31817 13.8998C7.7707 14.0887 8.23736 14.2303 8.71817 14.3245C9.19898 14.4192 9.68686 14.4665 10.1818 14.4665C10.6768 14.4665 11.1646 14.4192 11.6454 14.3245C12.1263 14.2303 12.5929 14.0887 13.0454 13.8998C13.1162 13.8665 13.1976 13.8414 13.2898 13.8245C13.3814 13.8081 13.4768 13.7998 13.5757 13.7998C13.6747 13.7998 13.7701 13.8081 13.8617 13.8245C13.9539 13.8414 14.0353 13.8665 14.1061 13.8998C14.5586 14.0998 15.0252 14.2498 15.5061 14.3498C15.9869 14.4498 16.4747 14.4998 16.9697 14.4998H17.8182C18.0586 14.4998 18.2599 14.5638 18.4223 14.6918C18.5852 14.8194 18.6667 14.9776 18.6667 15.1665C18.6667 15.3554 18.5852 15.5136 18.4223 15.6412C18.2599 15.7692 18.0586 15.8332 17.8182 15.8332H16.9697C16.3757 15.8332 15.796 15.7776 15.2303 15.6665C14.6646 15.5554 14.1131 15.3887 13.5757 15.1665C13.0384 15.3887 12.4835 15.5554 11.911 15.6665C11.338 15.7776 10.7616 15.8332 10.1818 15.8332C9.60201 15.8332 9.02589 15.7776 8.45345 15.6665C7.88044 15.5554 7.32524 15.3887 6.78787 15.1665C6.2505 15.3887 5.69898 15.5554 5.13332 15.6665C4.56767 15.7776 3.98787 15.8332 3.39393 15.8332H2.54545ZM5.0909 7.13317L9.65151 5.9665C9.8212 5.92206 9.99797 5.89984 10.1818 5.89984C10.3656 5.89984 10.5424 5.92206 10.7121 5.9665L15.2727 7.13317V4.49984H5.0909V7.13317Z" fill="#1C9236"/>
</svg>
