<svg width="21" height="17" viewBox="0 0 21 17" fill="none" xmlns="http://www.w3.org/2000/svg">
<g clip-path="url(#clip0_4349_4706)">
<path d="M5.09091 11.3571C5.09091 11.0417 4.92519 10.7723 4.59375 10.5491C4.26231 10.3259 3.86237 10.2143 3.39394 10.2143C2.9255 10.2143 2.52557 10.3259 2.19413 10.5491C1.86269 10.7723 1.69697 11.0417 1.69697 11.3571C1.69697 11.6726 1.86269 11.942 2.19413 12.1652C2.52557 12.3884 2.9255 12.5 3.39394 12.5C3.86237 12.5 4.26231 12.3884 4.59375 12.1652C4.92519 11.942 5.09091 11.6726 5.09091 11.3571ZM18.6667 11.3571C18.6667 11.0417 18.5009 10.7723 18.1695 10.5491C17.8381 10.3259 17.4381 10.2143 16.9697 10.2143C16.5013 10.2143 16.1013 10.3259 15.7699 10.5491C15.4384 10.7723 15.2727 11.0417 15.2727 11.3571C15.2727 11.6726 15.4384 11.942 15.7699 12.1652C16.1013 12.3884 16.5013 12.5 16.9697 12.5C17.4381 12.5 17.8381 12.3884 18.1695 12.1652C18.5009 11.942 18.6667 11.6726 18.6667 11.3571ZM18.0568 7.82143L17.1023 4.39286C17.0581 4.25595 16.9586 4.14435 16.804 4.05804C16.6493 3.97173 16.4703 3.92857 16.267 3.92857H4.09659C3.89331 3.92857 3.71433 3.97173 3.55966 4.05804C3.40499 4.14435 3.30556 4.25595 3.26136 4.39286L2.30682 7.82143C2.26263 8 2.32449 8.15774 2.49242 8.29464C2.66035 8.43155 2.87689 8.5 3.14205 8.5H17.2216C17.4867 8.5 17.7033 8.43155 17.8712 8.29464C18.0391 8.15774 18.101 8 18.0568 7.82143ZM15.0606 2.35714C15.0606 2.2381 14.9987 2.1369 14.875 2.05357C14.7513 1.97024 14.601 1.92857 14.4242 1.92857H5.93939C5.76263 1.92857 5.61237 1.97024 5.48864 2.05357C5.3649 2.1369 5.30303 2.2381 5.30303 2.35714C5.30303 2.47619 5.3649 2.57738 5.48864 2.66071C5.61237 2.74405 5.76263 2.78571 5.93939 2.78571H14.4242C14.601 2.78571 14.7513 2.74405 14.875 2.66071C14.9987 2.57738 15.0606 2.47619 15.0606 2.35714ZM20.3636 8.83036V14.2143H18.6667V15.3571C18.6667 15.6726 18.5009 15.942 18.1695 16.1652C17.8381 16.3884 17.4381 16.5 16.9697 16.5C16.5013 16.5 16.1013 16.3884 15.7699 16.1652C15.4384 15.942 15.2727 15.6726 15.2727 15.3571V14.2143H5.09091V15.3571C5.09091 15.6726 4.92519 15.942 4.59375 16.1652C4.26231 16.3884 3.86237 16.5 3.39394 16.5C2.9255 16.5 2.52557 16.3884 2.19413 16.1652C1.86269 15.942 1.69697 15.6726 1.69697 15.3571V14.2143H0V8.83036C0 8.16369 0.11048 7.5 0.331439 6.83929L1.69697 2.78571C1.77652 2.32143 2.20739 1.91369 2.98958 1.5625C3.77178 1.21131 4.78819 0.946429 6.03883 0.767857C7.28946 0.589286 8.67045 0.5 10.1818 0.5C11.6932 0.5 13.0742 0.589286 14.3248 0.767857C15.5754 0.946429 16.5919 1.21131 17.3741 1.5625C18.1562 1.91369 18.5871 2.32143 18.6667 2.78571L20.0587 6.83929C20.262 7.44643 20.3636 8.11012 20.3636 8.83036Z" fill="#1C9236"/>
</g>
<defs>
<clipPath id="clip0_4349_4706">
<rect width="20.3636" height="16" fill="white" transform="translate(0 0.5)"/>
</clipPath>
</defs>
</svg>
