<svg width="21" height="17" viewBox="0 0 21 17" fill="none" xmlns="http://www.w3.org/2000/svg">
<g clip-path="url(#clip0_4349_4700)">
<path d="M17.3091 6.5H16.8L13.3388 2.25063C13.148 2.01643 12.906 1.82738 12.6307 1.69745C12.3554 1.56752 12.054 1.50004 11.7485 1.5H4.94232C4.10964 1.5 3.36095 1.99781 3.05168 2.75719L1.52727 6.57062C0.650364 6.79375 0 7.56906 0 8.5V12C0 12.2762 0.227818 12.5 0.509091 12.5H2.03636C2.03636 14.1569 3.40391 15.5 5.09091 15.5C6.77791 15.5 8.14545 14.1569 8.14545 12.5H12.2182C12.2182 14.1569 13.5857 15.5 15.2727 15.5C16.9597 15.5 18.3273 14.1569 18.3273 12.5H19.8545C20.1358 12.5 20.3636 12.2762 20.3636 12V9.5C20.3636 7.84312 18.9961 6.5 17.3091 6.5ZM5.09091 14C4.24868 14 3.56364 13.3272 3.56364 12.5C3.56364 11.6728 4.24868 11 5.09091 11C5.93314 11 6.61818 11.6728 6.61818 12.5C6.61818 13.3272 5.93314 14 5.09091 14ZM7.38182 6.5H3.7205L4.94232 3.5H7.38182V6.5ZM8.90909 6.5V3.5H11.7485L14.1922 6.5H8.90909ZM15.2727 14C14.4305 14 13.7455 13.3272 13.7455 12.5C13.7455 11.6728 14.4305 11 15.2727 11C16.115 11 16.8 11.6728 16.8 12.5C16.8 13.3272 16.115 14 15.2727 14Z" fill="#1C9236"/>
</g>
<defs>
<clipPath id="clip0_4349_4700">
<rect width="20.3636" height="16" fill="white" transform="translate(0 0.5)"/>
</clipPath>
</defs>
</svg>
