<svg width="21" height="17" viewBox="0 0 21 17" fill="none" xmlns="http://www.w3.org/2000/svg">
<g clip-path="url(#clip0_4349_4718)">
<path d="M16.3195 6.5C15.8454 6.49688 15.3936 6.57188 14.9704 6.71563L13.9236 5H16.5454C16.9686 5 17.3091 4.66563 17.3091 4.25V3.25C17.3091 2.83438 16.9686 2.5 16.5454 2.5H15.1041C14.8877 2.5 14.6809 2.59063 14.5377 2.74688L13.3445 4.05L12.6191 2.8625C12.4791 2.6375 12.2309 2.5 11.9636 2.5H9.41817C9.13817 2.5 8.90908 2.725 8.90908 3V3.5C8.90908 3.775 9.13817 4 9.41817 4H11.5309L12.1418 5H7.25136C6.68817 4.27813 5.82272 3.75 4.07272 3.75H2.30681C1.87727 3.75 1.51772 4.09375 1.52727 4.51563C1.53363 4.92188 1.87408 5.25 2.2909 5.25H4.07272C4.85226 5.25 5.30408 5.59063 5.59363 6.025L5.23408 6.66563C4.82045 6.54375 4.37817 6.4875 3.91999 6.50313C1.77863 6.57813 0.0509018 8.3 -7.29781e-06 10.4063C-0.0509164 12.6594 1.79136 14.5 4.07272 14.5C5.96908 14.5 7.56317 13.225 8.01817 11.5H10.6973C11.1332 11.5 11.48 11.1438 11.4609 10.7156C11.3941 9.24375 12.0177 7.7875 13.2491 6.80938L13.6468 7.45938C12.7686 8.2 12.2118 9.3 12.2214 10.5281C12.2373 12.7031 14.0414 14.4813 16.2559 14.5C18.5341 14.5219 20.3859 12.7031 20.3668 10.4656C20.3445 8.29063 18.5341 6.51563 16.3195 6.5V6.5ZM4.07272 13C2.66954 13 1.52727 11.8781 1.52727 10.5C1.52727 9.12188 2.66954 8 4.07272 8C4.20636 8 4.33999 8.00938 4.47045 8.03125L3.14999 10.3875C2.86999 10.8875 3.23908 11.5 3.81817 11.5H6.40499C6.01045 12.3813 5.11317 13 4.07272 13ZM18.8332 10.6375C18.7632 11.9063 17.7195 12.9313 16.4309 12.9969C14.9641 13.075 13.7454 11.925 13.7454 10.5C13.7454 9.83125 14.0127 9.225 14.4486 8.77813L16.0204 11.3531C16.1636 11.5906 16.4786 11.6656 16.7204 11.525L17.1564 11.2688C17.3982 11.1281 17.4745 10.8188 17.3314 10.5813L15.785 8.05313C15.9504 8.01875 16.1191 8.00313 16.2909 8.00313C17.7418 8 18.9095 9.19688 18.8332 10.6375Z" fill="#1C9236"/>
</g>
<defs>
<clipPath id="clip0_4349_4718">
<rect width="20.3636" height="16" fill="white" transform="translate(0 0.5)"/>
</clipPath>
</defs>
</svg>
