<svg width="21" height="17" viewBox="0 0 21 17" fill="none" xmlns="http://www.w3.org/2000/svg">
<path d="M17.2115 5.24616C17.1906 5.19094 17.152 5.14085 17.0994 5.1007C17.0468 5.06054 16.982 5.03167 16.9111 5.01683C16.8402 5.00166 16.7655 5.00144 16.6944 5.01619C16.6234 5.03094 16.5585 5.06013 16.5064 5.10083L14.2868 6.8055L12.6628 6.55016L12.3395 5.27883L14.5838 3.5555C14.6363 3.51525 14.6747 3.46498 14.6951 3.4096C14.7155 3.35422 14.7173 3.29562 14.7003 3.23953C14.6833 3.18344 14.6481 3.13178 14.598 3.08959C14.548 3.0474 14.4849 3.01613 14.4149 2.99883C14.007 2.89335 13.5809 2.8376 13.1515 2.8335C10.8122 2.8335 8.90909 4.32883 8.90909 6.16683C8.90909 6.38216 8.94133 6.60016 9.00921 6.84016C8.53236 7.14883 8.07927 7.41483 7.56593 7.71616C6.83199 8.14683 6.00048 8.63416 4.86606 9.38683C4.53992 9.60764 4.27768 9.88071 4.09694 10.1877C3.9162 10.4947 3.82116 10.8286 3.81818 11.1668C3.81818 12.4535 5.1503 13.5002 6.78787 13.5002C7.21892 13.4991 7.64446 13.4239 8.03464 13.28C8.42481 13.136 8.77019 12.9268 9.04654 12.6668C9.79765 11.9738 10.5176 11.2602 11.2051 10.5275C11.5801 10.1335 11.911 9.78683 12.2937 9.42083C12.5991 9.47483 12.8774 9.50016 13.1515 9.50016C15.4908 9.50016 17.3939 8.00483 17.3939 6.16683C17.39 5.85463 17.3286 5.54452 17.2115 5.24616ZM6.78787 11.8335C6.56284 11.8335 6.34703 11.7633 6.1879 11.6382C6.02878 11.5132 5.93939 11.3436 5.93939 11.1668C5.93939 10.99 6.02878 10.8204 6.1879 10.6954C6.34703 10.5704 6.56284 10.5002 6.78787 10.5002C7.01291 10.5002 7.22872 10.5704 7.38784 10.6954C7.54696 10.8204 7.63636 10.99 7.63636 11.1668C7.63636 11.3436 7.54696 11.5132 7.38784 11.6382C7.22872 11.7633 7.01291 11.8335 6.78787 11.8335V11.8335Z" fill="#1C9236"/>
</svg>
