<svg width="21" height="17" viewBox="0 0 21 17" fill="none" xmlns="http://www.w3.org/2000/svg">
<g clip-path="url(#clip0_4349_4730)">
<path d="M16 0.5C18.4091 0.5 20.3636 1.84312 20.3636 3.5V11.5C20.3636 12.9719 18.7636 14.2406 16.6773 14.4656L18.7682 15.9031C19.0864 16.1219 18.8591 16.5 18.3682 16.5H16.6045C16.2182 16.5 15.8455 16.3938 15.5727 16.2063L13.0909 14.5H7.27273L4.79091 16.2063C4.51682 16.3938 4.14682 16.5 3.76136 16.5H1.95636C1.50273 16.5 1.27545 16.1219 1.59636 15.9031L3.68818 14.4656C1.59909 14.2406 0 12.9719 0 11.5V3.5C0 1.84312 1.95364 0.5 4.36364 0.5H16ZM2.90909 7.5C2.90909 8.05313 3.56045 8.5 4.36364 8.5H8C8.80455 8.5 9.45454 8.05313 9.45454 7.5V4.5C9.45454 3.94687 8.80455 3.5 8 3.5H4.36364C3.56045 3.5 2.90909 3.94687 2.90909 4.5V7.5ZM12.3636 3.5C11.5591 3.5 10.9091 3.94687 10.9091 4.5V7.5C10.9091 8.05313 11.5591 8.5 12.3636 8.5H16C16.8045 8.5 17.4545 8.05313 17.4545 7.5V4.5C17.4545 3.94687 16.8045 3.5 16 3.5H12.3636ZM4.36364 10.5C3.56045 10.5 2.90909 10.9469 2.90909 11.5C2.90909 12.0531 3.56045 12.5 4.36364 12.5C5.16818 12.5 5.81818 12.0531 5.81818 11.5C5.81818 10.9469 5.16818 10.5 4.36364 10.5ZM16 12.5C16.8045 12.5 17.4545 12.0531 17.4545 11.5C17.4545 10.9469 16.8045 10.5 16 10.5C15.1955 10.5 14.5455 10.9469 14.5455 11.5C14.5455 12.0531 15.1955 12.5 16 12.5Z" fill="#1C9236"/>
</g>
<defs>
<clipPath id="clip0_4349_4730">
<rect width="20.3636" height="16" fill="white" transform="translate(0 0.5)"/>
</clipPath>
</defs>
</svg>
