<svg width="21" height="17" viewBox="0 0 21 17" fill="none" xmlns="http://www.w3.org/2000/svg">
<g clip-path="url(#clip0_4349_4712)">
<path d="M6.78788 13.5909C6.78788 13.197 6.63861 12.8561 6.34007 12.5682C6.04153 12.2803 5.68799 12.1364 5.27946 12.1364C4.87093 12.1364 4.5174 12.2803 4.21886 12.5682C3.92031 12.8561 3.77104 13.197 3.77104 13.5909C3.77104 13.9848 3.92031 14.3258 4.21886 14.6136C4.5174 14.9015 4.87093 15.0455 5.27946 15.0455C5.68799 15.0455 6.04153 14.9015 6.34007 14.6136C6.63861 14.3258 6.78788 13.9848 6.78788 13.5909ZM2.26263 7.77273H6.78788V4.86364H4.92593C4.82379 4.86364 4.73737 4.89773 4.66667 4.96591L2.36869 7.18182C2.29798 7.25 2.26263 7.33333 2.26263 7.43182V7.77273ZM17.3468 13.5909C17.3468 13.197 17.1975 12.8561 16.899 12.5682C16.6004 12.2803 16.2469 12.1364 15.8384 12.1364C15.4299 12.1364 15.0763 12.2803 14.7778 12.5682C14.4792 12.8561 14.33 13.197 14.33 13.5909C14.33 13.9848 14.4792 14.3258 14.7778 14.6136C15.0763 14.9015 15.4299 15.0455 15.8384 15.0455C16.2469 15.0455 16.6004 14.9015 16.899 14.6136C17.1975 14.3258 17.3468 13.9848 17.3468 13.5909ZM20.3636 1.22727V12.8636C20.3636 12.9773 20.3479 13.0777 20.3165 13.1648C20.2851 13.2519 20.232 13.322 20.1574 13.375C20.0828 13.428 20.018 13.4716 19.963 13.5057C19.908 13.5398 19.8157 13.5625 19.686 13.5739C19.5564 13.5852 19.468 13.5928 19.4209 13.5966C19.3737 13.6004 19.2736 13.6004 19.1204 13.5966C18.9672 13.5928 18.8788 13.5909 18.8552 13.5909C18.8552 14.3939 18.5606 15.0795 17.9714 15.6477C17.3822 16.2159 16.6712 16.5 15.8384 16.5C15.0056 16.5 14.2946 16.2159 13.7054 15.6477C13.1162 15.0795 12.8215 14.3939 12.8215 13.5909H8.2963C8.2963 14.3939 8.00168 15.0795 7.41246 15.6477C6.82323 16.2159 6.11223 16.5 5.27946 16.5C4.44669 16.5 3.73569 16.2159 3.14646 15.6477C2.55724 15.0795 2.26263 14.3939 2.26263 13.5909H1.50842C1.48485 13.5909 1.39646 13.5928 1.24327 13.5966C1.09007 13.6004 0.989899 13.6004 0.942761 13.5966C0.895623 13.5928 0.807239 13.5852 0.677609 13.5739C0.54798 13.5625 0.455668 13.5398 0.400673 13.5057C0.345679 13.4716 0.280864 13.428 0.206229 13.375C0.131594 13.322 0.0785634 13.2519 0.047138 13.1648C0.0157127 13.0777 0 12.9773 0 12.8636C0 12.6667 0.0746352 12.4962 0.223906 12.3523C0.373176 12.2083 0.549944 12.1364 0.754209 12.1364V8.5C0.754209 8.43939 0.752245 8.30682 0.748316 8.10227C0.744388 7.89773 0.744388 7.75379 0.748316 7.67045C0.752245 7.58712 0.762065 7.45644 0.777778 7.27841C0.79349 7.10038 0.819024 6.96023 0.854377 6.85795C0.889731 6.75568 0.944725 6.64015 1.01936 6.51136C1.094 6.38258 1.18238 6.26894 1.28451 6.17045L3.61785 3.92045C3.76712 3.77652 3.96549 3.6553 4.21296 3.55682C4.46044 3.45833 4.69024 3.40909 4.90236 3.40909H6.78788V1.22727C6.78788 1.0303 6.86251 0.859848 7.01178 0.715909C7.16105 0.57197 7.33782 0.5 7.54209 0.5H19.6094C19.8137 0.5 19.9905 0.57197 20.1397 0.715909C20.289 0.859848 20.3636 1.0303 20.3636 1.22727Z" fill="#1C9236"/>
</g>
<defs>
<clipPath id="clip0_4349_4712">
<rect width="20.3636" height="16" fill="white" transform="translate(0 0.5)"/>
</clipPath>
</defs>
</svg>
